<?xml version="1.0" encoding="UTF-8"?>
<svg id="Calque_1" data-name="Calque 1" xmlns="http://www.w3.org/2000/svg" viewBox="0 0 1700 671.34">
  <g>
    <path d="M1519.74,258.79h-78.02c-1.9,0-3.45-1.52-3.45-3.39v-76.59c0-43.44-35.02-78.81-78.07-78.81s-78.43,34.65-78.43,78.81v146.78c0,9.52,7.86,17.24,17.55,17.24h0c9.69,0,17.55-7.72,17.55-17.24v-146.78c0-23.3,18.9-41.57,43-41.57s43,18.27,43,41.57v109.43c0,2.79,2.29,5.08,5.16,5.08,24.33.03,111.71-.02,111.71-.02,23.72,0,42.33,18.53,42.33,42.2s-18.6,42.23-42.33,42.23h-9.62c-9.74,0-17.67,7.79-17.71,17.41,0,4.62,1.84,8.99,5.21,12.29,3.31,3.29,7.76,5.06,12.5,5.06h9.62c44.26,0,80.26-34.39,80.26-76.68s-35.24-77.03-80.26-77.03Z" style="fill: #1dc280;"/>
    <path d="M1422.37,354.57c10.45,0,19.93,3.66,27.38,10.57,5.03,4.67,15.17,5.69,21.71,2.18,5.02-2.69,8.33-7.43,9.12-12.99.78-5.67-1.19-11.23-5.38-15.26-13.38-12.8-31.65-19.71-52.83-19.91h-.57c-21.17,0-40.98,7.92-55.76,22.35-10.36,10.11-17.47,22.59-20.74,36.22h-144.61c-23.95,0-42.67-18.56-42.67-42.23s18.72-42.2,42.67-42.2h28c9.69,0,17.55-7.72,17.55-17.24h0c0-9.52-7.87-17.24-17.56-17.24-16.29,0-30.17.02-30.82.03-42.91,0-77.76,34.53-77.76,76.96s34.84,76.64,77.69,76.64h84.02v3.08c0,27.18,0,77.88.05,79.4,0,42.2,35.14,76.39,78.34,76.39s77.98-34.19,77.98-76.27v-24.88c14.48-2.69,27.1-8.94,37.01-18.44,4.19-4.01,6.16-9.58,5.38-15.24-.79-5.55-4.1-10.3-9.12-12.99-6.53-3.51-16.67-2.49-21.71,2.18-7.45,6.89-16.93,10.55-27.38,10.55-22.79,0-40.64-17.93-40.64-40.84s17.84-40.84,40.64-40.84ZM1402.87,469.48s0,0,0,0v22.74c0,23.47-18.9,41.86-43,41.86s-43-18.39-43-41.86v-79.72h28.29c3.24,13.82,10.4,26.52,20.95,36.8,10.28,10.02,22.93,16.9,36.76,20.18Z" style="fill: #1dc280;"/>
  </g>
  <path d="M555.27,262.41v35.25c0,1.47-1.19,2.65-2.65,2.65h-9.81c-31.1,0-46.86,15.46-46.86,45.93v62.28c0,1.47-1.19,2.65-2.65,2.65h-37.07c-1.45,0-2.65-1.19-2.65-2.65v-144.8c0-1.47,1.2-2.65,2.65-2.65h34.83c1.36,0,2.49,1.02,2.64,2.37l2.57,23.88c.07.61.54,1.1,1.14,1.19.61.08,1.2-.23,1.44-.79l2.24-5.24c6.61-15.41,20.32-23.88,38.59-23.88,4.44,0,8.97.4,13.46,1.21,1.21.22,2.13,1.33,2.13,2.61Z" style="fill: #fff;"/>
  <path d="M402.81,279.86c-15.5-15.3-36.45-23.73-58.97-23.73s-43.09,8.39-58.56,23.61c-15.31,15.08-23.74,35.15-23.74,56.53,0,45.11,36.15,80.45,82.31,80.45,22.45,0,43.36-8.4,58.84-23.65,15.34-15.11,23.8-35.27,23.8-56.8s-8.42-41.33-23.68-56.41ZM343.85,377.88c-22.8,0-40.67-18.14-40.67-41.31s17.87-41.31,40.67-41.31,41,18.14,41,41.31-18.01,41.31-41,41.31Z" style="fill: #fff;"/>
  <path d="M653.58,296.93v54.64c0,17.58,10.68,28.5,27.88,28.5,7.45,0,16.09-1.78,23.14-4.78.79-.34,1.68-.26,2.41.23.75.5,1.2,1.33,1.2,2.24v30.82c0,.98-.5,1.87-1.27,2.28-7.07,3.76-18.67,6.18-29.54,6.18-21.23,0-37.77-6.01-49.17-17.85-10.65-11.07-16.28-27.1-16.28-46.37v-55.88c0-.74-.61-1.35-1.35-1.35h-24.4c-1.47,0-2.67-1.19-2.67-2.65v-29.46c0-1.47,1.2-2.65,2.67-2.65h24.4c.74,0,1.35-.61,1.35-1.35v-35.33c0-1.47,1.19-2.67,2.65-2.67h36.32c1.47,0,2.65,1.2,2.65,2.67v35.33c0,.74.61,1.35,1.35,1.35h50.63c1.47,0,2.65,1.19,2.65,2.65v29.46c0,1.47-1.19,2.65-2.65,2.65h-50.63c-.74,0-1.35.61-1.35,1.35Z" style="fill: #fff;"/>
  <path d="M867.45,278.14c-13.87-15-33.27-22.94-56.11-22.94-44.97,0-78.87,34.44-78.87,80.12,0,23.25,8.42,44.16,23.7,58.9,15.04,14.51,36.08,22.49,59.23,22.49,30.55,0,54.95-13.97,68.73-39.33.35-.63.42-1.37.2-2.06-.22-.7-.7-1.27-1.35-1.59l-26.99-13.62c-1.2-.61-2.76-.15-3.49,1.04-7.77,12.62-21.42,19.85-37.42,19.85-20.54,0-36.43-11.61-41.46-30.3-.43-1.6-.09-3.29.92-4.62,1.04-1.33,2.59-2.11,4.28-2.11h105.93c1.45,0,2.65-1.19,2.65-2.65v-9.1c0-20.93-7.1-40.14-19.97-54.08ZM844.9,320.64c-.77.86-1.86,1.36-3.02,1.36h-63.26c-1.17,0-2.28-.5-3.06-1.37-.74-.85-1.1-1.97-.97-3.07,1.95-16.44,18.64-30.34,36.43-30.34s33.05,15.61,34.86,30.2c.15,1.17-.22,2.36-.98,3.23Z" style="fill: #fff;"/>
  <path d="M1072.68,407.18c.5.81.53,1.8.05,2.64-.47.84-1.32,1.35-2.29,1.35h-40.32c-.92,0-1.75-.47-2.22-1.24l-25.37-40.88c-2.41-4.04-4.44-8.31-5.86-12.34-.77-2.17-2.79-3.62-5.02-3.62h-5.19c-2.25,0-4.27,1.45-5.02,3.62-1.43,4.03-3.45,8.3-5.86,12.31l-25.37,40.9c-.49.77-1.32,1.24-2.22,1.24h-40.34c-.96,0-1.82-.51-2.29-1.35-.46-.84-.44-1.83.07-2.64l32.47-52.65c4.97-7.95,7.08-13.67,7.08-19.14,0-5.15-1.85-10.3-6.13-17.24l-33.48-54.86c-.5-.82-.51-1.8-.04-2.64.46-.84,1.32-1.33,2.28-1.33h40.66c.9,0,1.76.49,2.24,1.27l25.06,41.48c2.07,3.35,3.78,6.94,4.96,10.36.75,2.22,2.79,3.7,5.06,3.7h6.94c2.26,0,4.3-1.48,5.05-3.7,1.17-3.41,2.88-6.99,4.96-10.37l25.06-41.47c.48-.78,1.33-1.27,2.25-1.27h40.65c.97,0,1.82.5,2.29,1.33.47.84.44,1.82-.05,2.64l-33.47,54.84c-4.3,6.95-6.13,12.11-6.13,17.25,0,5.48,2.11,11.21,7.06,19.14l32.5,52.65Z" style="fill: #fff;"/>
  <path d="M100,408.47v-146.46c0-1.49,1.21-2.69,2.69-2.69h37.64c1.49,0,2.69,1.21,2.69,2.69v54.63c0,1.49,1.21,2.69,2.69,2.69h9.99c.96,0,1.84-.52,2.33-1.35,1.35-2.28,2.91-4.56,4.68-6.84l40.71-49.03c.51-.62,1.27-.97,2.07-.97h44.18c2.29,0,3.53,2.67,2.07,4.42l-47.95,57.27c-6.24,7.46-6.29,18.3-.11,25.81l47.84,58.1c1.45,1.76.2,4.41-2.08,4.41h-44.23c-.81,0-1.58-.36-2.09-.99l-40.71-49.92c-1.78-2.29-3.35-4.8-4.71-7.34-.47-.89-1.38-1.45-2.38-1.45h-9.61c-1.49,0-2.69,1.21-2.69,2.69v54.31c0,1.49-1.21,2.69-2.69,2.69h-37.64c-1.49,0-2.69-1.21-2.69-2.69Z" style="fill: #fff;"/>
  <g>
    <path d="M295.58,474.01h24.09c4.32,0,7.89.49,10.69,1.48,2.8.98,4.87,2.49,6.23,4.52,1.35,2.03,2.03,4.51,2.03,7.44s-.69,5.32-2.06,7.27c-1.37,1.95-3.45,3.42-6.23,4.4-2.78.98-6.37,1.48-10.77,1.48h-14.02v11.52h-9.96v-38.11ZM324.82,493.55c1.47-.48,2.59-1.19,3.36-2.11.77-.93,1.16-2.14,1.16-3.65,0-1.39-.36-2.57-1.07-3.53-.71-.96-1.82-1.67-3.3-2.11-1.49-.44-3.39-.67-5.7-.67h-13.73v12.8h13.67c2.28,0,4.15-.24,5.62-.72Z" style="fill: #fff;"/>
    <path d="M391.43,474.01h9.96v14.77h28.67v-14.77h9.85v38.11h-9.85v-15.98h-28.67v15.98h-9.96v-38.11Z" style="fill: #fff;"/>
    <path d="M519.88,481.48l-17.08,30.64h-10.42l22.41-38.11h11.7l22.41,38.11h-11.7l-17.2-30.64h-.12ZM505.86,504.01l3.19-5.91h21.78l3.19,5.91h-28.15Z" style="fill: #fff;"/>
    <path d="M601.25,474.01h25.42c4.48,0,8.1.45,10.86,1.36,2.76.91,4.75,2.18,5.97,3.82,1.22,1.64,1.82,3.64,1.82,5.99,0,2.16-.58,4.05-1.74,5.68-1.16,1.62-3.05,2.76-5.68,3.42v.12c1.97.43,3.46,1.09,4.49,2,1.02.91,1.73,1.99,2.11,3.24.39,1.25.58,2.73.58,4.43v8.05h-9.9v-7.99c0-1.43-.22-2.59-.67-3.48-.44-.89-1.19-1.54-2.23-1.97-1.04-.42-2.47-.64-4.29-.64h-16.8v14.07h-9.96v-38.11ZM632.32,491.29c1.25-.44,2.18-1.04,2.78-1.8.6-.75.9-1.73.9-2.92,0-1.08-.32-2-.96-2.75-.64-.75-1.69-1.33-3.16-1.74-1.47-.41-3.38-.61-5.73-.61h-14.94v10.48h16.16c2.05,0,3.7-.22,4.95-.67Z" style="fill: #fff;"/>
    <path d="M699.76,474.01h16.39l12.8,27.63h.12l12.51-27.63h15.69v38.11h-9.79v-31.27h-.12l-14.54,31.27h-8.8l-14.65-31.27h-.06v31.27h-9.56v-38.11Z" style="fill: #fff;"/>
    <path d="M837.31,481.48l-17.08,30.64h-10.42l22.41-38.11h11.7l22.41,38.11h-11.7l-17.2-30.64h-.12ZM823.29,504.01l3.19-5.91h21.78l3.19,5.91h-28.15Z" style="fill: #fff;"/>
  </g>
</svg>